<svg xmlns="http://www.w3.org/2000/svg" xmlns:svg="http://www.w3.org/2000/svg" id="svg3951" width="16" height="16" version="1.1"><metadata id="metadata3956"/><g id="layer1" transform="translate(0,-1036.3622)"><path id="path4561" d="m 8,1037.3622 c -2.74958,0 -5,2.2504 -5,5 0,1.5862 0.84459,2.9034 2,3.8125 l 0,2.1875 0,1 1,0 4,0 1,0 0,-1 0,-2.1875 c 1.15541,-0.9091 2,-2.2263 2,-3.8125 0,-2.7496 -2.25042,-5 -5,-5 z m 0,2 c 1.66868,0 3,1.3313 3,3 0,1.1159 -0.59507,2.0379 -1.5,2.5625 l -0.5,0.3125 0,0.5625 0,1.5625 -2,0 0,-1.5625 0,-0.5625 -0.5,-0.3125 c -0.90493,-0.5246 -1.5,-1.4466 -1.5,-2.5625 0,-1.6687 1.33132,-3 3,-3 z" style="font-size:medium;font-style:normal;font-variant:normal;font-weight:400;font-stretch:normal;text-indent:0;text-align:start;text-decoration:none;line-height:normal;letter-spacing:normal;word-spacing:normal;text-transform:none;direction:ltr;block-progression:tb;writing-mode:lr-tb;text-anchor:start;baseline-shift:baseline;color:#000;fill:#bebebe;fill-opacity:1;stroke:none;stroke-width:2.00000024;marker:none;visibility:visible;display:inline;overflow:visible;enable-background:accumulate;font-family:Sans;-inkscape-font-specification:Sans"/><path id="path4488-4-4" d="m 7,1042.3622 0,1 2,0 0,-1 -2,0 z" style="font-size:medium;font-style:normal;font-variant:normal;font-weight:400;font-stretch:normal;text-indent:0;text-align:start;text-decoration:none;line-height:normal;letter-spacing:normal;word-spacing:normal;text-transform:none;direction:ltr;block-progression:tb;writing-mode:lr-tb;text-anchor:start;baseline-shift:baseline;opacity:.35;color:#000;fill:#bebebe;fill-opacity:1;fill-rule:nonzero;stroke:none;stroke-width:1;marker:none;visibility:visible;display:inline;overflow:visible;enable-background:accumulate;font-family:Sans;-inkscape-font-specification:Sans"/><rect style="fill:#babdb6;fill-opacity:1;stroke:none" id="rect4033" width="4" height="1" x="6" y="1050.362"/></g></svg>