<svg xmlns="http://www.w3.org/2000/svg" xmlns:svg="http://www.w3.org/2000/svg" id="svg2" width="16" height="16" version="1.1"><metadata id="metadata7"/><g id="layer1" transform="translate(0,-1036.3622)"><g id="g11497-6-7" transform="translate(-86,649.3622)"><path style="opacity:.51464431;color:#bebebe;fill:none;stroke:none;stroke-width:3;marker:none;visibility:visible;display:inline;overflow:visible;enable-background:accumulate" id="rect10727-3-4" d="m 48,398 16,0 0,16 -16,0 z"/><path style="color:#bebebe;fill:#bebebe;fill-opacity:1;fill-rule:nonzero;stroke:none;stroke-width:1;marker:none;visibility:visible;display:inline;overflow:visible;enable-background:accumulate" id="path4387" d="m 41.90625,398.96875 c -0.510315,0.0397 -0.946437,0.51947 -0.9375,1.03125 l 0,13 c -0.0079,0.54208 0.489173,1.03914 1.03125,1.03125 l 10,0 c 0.542077,0.008 1.039137,-0.48917 1.03125,-1.03125 l 0,-10 c -0.0039,-0.26817 -0.119017,-0.53303 -0.3125,-0.71875 l -3,-3 C 49.533028,399.08777 49.268166,398.97261 49,398.96875 l -7,0 c -0.03123,-10e-4 -0.06252,-10e-4 -0.09375,0 z M 48.5,400 c 0.277,0 0.5,0.223 0.5,0.5 l 0,2.5 2.5,0 c 0.277,0 0.5,0.223 0.5,0.5 0,0.277 -0.223,0.5 -0.5,0.5 l -3,0 c -0.277,0 -0.5,-0.223 -0.5,-0.5 l 0,-3 c 0,-0.277 0.223,-0.5 0.5,-0.5 z"/><path style="color:#bebebe;fill:#bebebe;fill-opacity:1;fill-rule:nonzero;stroke:none;stroke-width:1;marker:none;visibility:visible;display:inline;overflow:visible;enable-background:accumulate" id="path3054" d="M -44.09375 11.96875 C -44.604065 12.00845 -45.040187 12.48822 -45.03125 13 L -45.03125 26 C -45.03915 26.54208 -44.542077 27.03914 -44 27.03125 L -34 27.03125 C -33.457923 27.03925 -32.960863 26.54208 -32.96875 26 L -32.96875 16 C -32.97265 15.73183 -33.087767 15.46697 -33.28125 15.28125 L -36.28125 12.28125 C -36.466972 12.08777 -36.731834 11.97261 -37 11.96875 L -44 11.96875 C -44.03123 11.96775 -44.06252 11.96775 -44.09375 11.96875 z M -42.5 15 L -36.5 15 L -36.5 16 L -40 16 C -39.723 16 -39.5 16.223 -39.5 16.5 L -39.5 19 L -37 19 C -36.723 19 -36.5 19.223 -36.5 19.5 C -36.5 19.777 -36.723 20 -37 20 L -40 20 C -40.277 20 -40.5 19.777 -40.5 19.5 L -40.5 16.5 C -40.5 16.223 -40.277 16 -40 16 L -42.5 16 L -42.5 15 z" transform="translate(86,387)"/></g><path style="font-size:medium;font-style:normal;font-variant:normal;font-weight:400;font-stretch:normal;text-indent:0;text-align:start;text-decoration:none;line-height:normal;letter-spacing:normal;word-spacing:normal;text-transform:none;direction:ltr;block-progression:tb;writing-mode:lr-tb;text-anchor:start;baseline-shift:baseline;color:#000;fill:#888a85;fill-opacity:1;stroke:none;stroke-width:1;marker:none;visibility:visible;display:inline;overflow:visible;enable-background:accumulate;font-family:Sans;-inkscape-font-specification:Sans" id="rect2987" d="m 25.000034,1070.3622 12,0 0,-13 -12,0 z m 1,-12 10,0 0,11 -10,0 z"/><path style="fill:#888a85;fill-opacity:1;stroke:none" id="path3774" d="m 27,1060.3622 0.999983,0 1.7e-5,0 1.7e-5,1 -1.7e-5,0 -0.999983,0 -1.7e-5,0 -1.7e-5,-1 z"/><path id="path2990" d="m 29,1063.3622 5.999983,0 1.7e-5,0 1.7e-5,0.9999 -1.7e-5,10e-5 -5.999983,0 -1.7e-5,0 -1.7e-5,-1 z" style="fill:#888a85;fill-opacity:1;stroke:none"/><path style="fill:#888a85;fill-opacity:1;stroke:none" id="path2992" d="m 29,1066.3622 5.999983,0 1.7e-5,0 1.7e-5,0.9999 -1.7e-5,10e-5 -5.999983,0 -1.7e-5,0 -1.7e-5,-1 z"/><path id="path2994" d="m 27.000017,1063.3622 0.999983,0 1.7e-5,0 1.7e-5,1 -1.7e-5,0 -0.999983,0 -1.7e-5,0 -1.7e-5,-1 z" style="fill:#888a85;fill-opacity:1;stroke:none"/><path style="fill:#888a85;fill-opacity:1;stroke:none" id="path2996" d="m 27.000017,1066.3622 0.999983,0 1.7e-5,0 1.7e-5,1 -1.7e-5,0 -0.999983,0 -1.7e-5,0 -1.7e-5,-1 z"/><path style="fill:#babdb6;fill-opacity:1;stroke:none" id="rect3096" d="M 2,2 2,15 14,15 14,4 12,2 z M 4,5 5,5 5,6 4,6 z m 2,0 6,0 0,1 -6,0 z M 4,8 5,8 5,9 4,9 z m 2,0 6,0 0,1 -6,0 z m -2,3 1,0 0,1 -1,0 z m 2,0 6,0 0,1 -6,0 z" transform="translate(0,1036.3622)"/></g></svg>